<?xml version="1.0" standalone="no"?>
<!DOCTYPE svg PUBLIC "-//W3C//DTD SVG 20010904//EN"
 "http://www.w3.org/TR/2001/REC-SVG-20010904/DTD/svg10.dtd">
<svg version="1.0" xmlns="http://www.w3.org/2000/svg"
 width="2048.000000pt" height="2048.000000pt" viewBox="0 0 2048.000000 2048.000000"
 preserveAspectRatio="xMidYMid meet">
<circle cx="1024" cy="1024" r="1024" fill="#FFFFFF" />
<!-- <style>
        path { fill: #0000FF; } /* Replace #000000 with your desired color */
    </style> -->
<g transform="translate(0.000000,2048.000000) scale(0.100000,-0.100000)"
fill="#000000" stroke="none">  
<path d="M10660 18109 c-52 -5 -104 -13 -115 -17 -11 -5 -54 -17 -95 -27 -41
-9 -84 -20 -95 -25 -11 -5 -29 -11 -40 -13 -35 -9 -249 -87 -282 -102 -17 -8
-34 -15 -38 -15 -5 0 -160 -67 -305 -132 -146 -66 -545 -263 -665 -328 -33
-18 -103 -55 -155 -82 -116 -62 -227 -122 -325 -178 -22 -12 -65 -36 -95 -52
-30 -17 -72 -39 -93 -51 l-37 -21 -43 40 c-44 42 -222 180 -292 225 -107 70
-164 103 -269 154 -63 30 -117 55 -121 55 -3 0 -25 9 -48 19 -23 11 -91 34
-152 51 -60 18 -119 36 -130 41 -115 45 -577 61 -730 25 -44 -10 -89 -22 -100
-27 -86 -34 -152 -65 -166 -76 -8 -7 -19 -13 -23 -13 -14 0 -122 -78 -168
-122 -64 -61 -173 -193 -193 -234 -8 -18 -20 -36 -25 -39 -10 -6 -174 -331
-185 -367 -4 -13 -13 -36 -20 -53 -37 -84 -89 -216 -102 -260 -8 -27 -21 -61
-29 -75 -7 -14 -40 -110 -74 -215 -33 -104 -67 -203 -75 -218 -8 -16 -15 -37
-15 -47 0 -10 -4 -22 -10 -25 -5 -3 -10 -19 -10 -35 0 -16 -4 -31 -9 -34 -4
-3 -11 -23 -15 -43 -3 -21 -19 -78 -35 -128 -16 -49 -39 -124 -51 -165 -12
-41 -31 -100 -41 -131 -11 -30 -19 -63 -19 -72 0 -10 -4 -25 -9 -35 -11 -20
-69 -227 -82 -292 -5 -25 -13 -56 -18 -70 -5 -14 -14 -45 -21 -70 -7 -25 -15
-52 -18 -60 -3 -8 -11 -40 -18 -70 -7 -30 -17 -73 -24 -95 -6 -22 -17 -65 -25
-95 -8 -30 -19 -73 -25 -95 -6 -22 -15 -60 -21 -85 -5 -25 -13 -56 -18 -70
-10 -30 -24 -80 -46 -175 -9 -38 -19 -77 -23 -85 -3 -8 -11 -40 -18 -70 -13
-59 -36 -157 -60 -255 -8 -33 -17 -71 -20 -85 -3 -14 -8 -32 -12 -40 -3 -8
-11 -40 -18 -70 -29 -128 -43 -189 -58 -250 -19 -75 -38 -155 -61 -255 -8 -38
-22 -99 -31 -135 -8 -36 -21 -94 -30 -130 -8 -36 -21 -94 -30 -130 -8 -36 -21
-94 -30 -130 -8 -36 -23 -105 -33 -155 -32 -157 -15 -157 -187 2 -219 203
-506 460 -784 702 -135 117 -258 225 -275 240 -16 14 -52 44 -80 66 -27 21
-68 55 -90 74 -71 63 -305 253 -409 334 -303 233 -446 333 -576 402 -69 36
-81 39 -156 40 -80 0 -81 0 -139 -45 -32 -25 -66 -58 -75 -73 -42 -68 -49
-335 -15 -527 31 -170 75 -348 123 -500 54 -168 63 -195 74 -214 5 -11 18 -42
28 -70 36 -98 135 -323 171 -386 5 -8 26 -49 47 -90 33 -65 84 -157 125 -225
7 -11 41 -65 77 -120 36 -55 67 -105 70 -110 3 -6 17 -26 31 -45 14 -19 52
-71 84 -114 189 -255 463 -520 743 -719 28 -20 54 -37 57 -37 4 0 40 -22 130
-77 24 -15 165 -84 215 -106 19 -8 51 -22 70 -30 37 -16 184 -66 260 -87 25
-7 52 -15 60 -18 17 -6 106 -27 190 -44 l54 -11 -84 -43 c-130 -65 -180 -92
-245 -129 -98 -56 -515 -261 -588 -290 -113 -43 -211 -56 -402 -53 -93 2 -251
3 -351 3 l-181 0 -70 -47 c-88 -58 -103 -87 -103 -200 0 -72 4 -91 30 -142 42
-83 96 -151 230 -290 130 -134 320 -304 455 -405 198 -149 256 -177 403 -200
l109 -16 -38 -79 c-20 -43 -49 -122 -64 -175 -15 -53 -31 -105 -35 -116 -5
-11 -17 -72 -26 -135 -24 -153 -25 -574 -1 -695 19 -94 42 -196 56 -245 5 -19
13 -46 17 -60 4 -14 10 -29 14 -35 4 -5 17 -37 29 -70 12 -33 64 -143 115
-245 89 -177 116 -228 157 -295 11 -16 22 -37 26 -45 3 -8 21 -37 38 -65 17
-27 34 -57 38 -65 4 -8 21 -37 37 -65 17 -27 77 -143 134 -256 l104 -206 -50
-39 c-104 -79 -338 -330 -338 -363 0 -5 -6 -13 -13 -19 -17 -14 -82 -144 -101
-202 -31 -96 -48 -307 -27 -348 5 -9 16 -48 26 -86 9 -38 25 -86 36 -105 38
-69 61 -106 88 -141 15 -19 51 -66 81 -105 194 -254 704 -766 1130 -1135 160
-139 458 -381 585 -475 37 -27 93 -69 124 -92 65 -48 362 -253 388 -268 10 -6
40 -24 68 -40 58 -35 63 -38 152 -90 37 -22 77 -45 88 -52 29 -17 229 -116
305 -151 36 -16 140 -53 230 -81 222 -70 218 -69 275 -77 28 -3 55 -10 60 -14
15 -11 219 -38 374 -50 163 -12 334 -12 461 0 52 5 146 14 209 20 63 6 119 14
125 19 6 5 52 14 101 21 50 7 95 15 100 19 6 4 44 15 85 25 112 26 358 102
425 131 17 7 53 21 80 30 28 10 55 22 60 25 6 4 30 14 55 23 206 71 753 344
1048 522 9 6 46 27 82 48 82 48 93 55 152 95 26 17 52 32 56 32 5 0 17 9 27
20 10 11 22 20 27 20 4 0 31 16 58 35 27 19 54 35 58 35 5 0 17 9 27 20 10 11
21 20 26 20 4 0 49 29 100 65 240 166 347 242 379 266 19 14 118 88 220 164
565 421 1093 861 1530 1274 347 328 617 620 755 817 27 38 50 71 52 73 1 2 31
-21 65 -50 92 -80 377 -289 393 -289 3 0 28 -16 55 -35 27 -19 56 -35 64 -35
8 0 18 -5 22 -11 10 -17 204 -107 281 -131 116 -35 465 -85 675 -96 246 -14
463 -3 583 30 123 33 190 68 260 135 116 111 142 252 104 548 -6 44 -14 89
-19 100 -14 33 -62 216 -58 220 2 2 37 9 78 15 41 7 84 16 95 20 11 5 58 16
105 24 136 24 215 43 350 84 255 77 382 153 461 275 31 48 38 70 44 132 5 46
3 80 -3 88 -5 6 -12 28 -16 47 -9 48 -92 212 -161 315 -198 297 -534 636 -826
833 -142 95 -275 157 -424 198 -75 20 -296 37 -414 31 -57 -4 -100 -2 -95 2 5
4 54 44 109 88 379 305 746 723 893 1018 35 70 62 137 62 154 0 9 5 22 12 29
21 21 16 207 -7 271 -45 123 -183 225 -390 287 -98 29 -434 87 -610 104 -60 6
-153 15 -205 21 -52 5 -198 18 -325 29 -332 28 -405 36 -582 65 -161 25 -189
32 -413 107 -202 68 -203 71 -10 63 531 -20 688 -24 1001 -25 352 0 664 12
778 31 35 5 113 14 173 20 61 5 115 13 122 17 6 4 67 17 136 29 69 12 157 29
195 38 39 9 95 22 125 29 30 7 62 15 70 18 8 3 35 11 60 18 180 50 537 167
735 240 61 23 135 50 165 61 81 31 293 120 305 129 6 4 28 13 49 20 21 7 70
28 107 46 38 19 72 34 76 34 12 0 398 197 461 235 9 6 46 27 82 48 82 48 93
55 152 95 26 17 52 32 56 32 5 0 17 9 27 20 10 11 22 20 27 20 9 0 97 66 193
144 125 102 274 269 317 358 69 140 73 155 73 288 -1 125 -11 169 -55 240 -5
8 -17 29 -26 47 -44 88 -274 329 -455 479 -161 133 -449 344 -468 344 -5 0
-14 7 -21 15 -7 8 -37 30 -67 47 -74 44 -81 49 -133 83 -25 16 -65 40 -90 53
-25 14 -52 30 -60 37 -8 6 -22 15 -30 19 -8 3 -35 18 -60 32 -25 14 -65 37
-90 51 -25 13 -65 36 -90 50 -44 25 -376 191 -435 218 -46 21 -135 61 -185 83
-25 11 -85 37 -135 57 -49 20 -108 44 -130 54 -22 10 -51 22 -65 26 -14 4 -38
13 -55 21 -46 20 -347 118 -460 149 -55 15 -109 30 -120 35 -11 4 -65 17 -120
29 -55 12 -129 28 -165 36 -256 56 -599 82 -859 66 -102 -7 -195 -16 -206 -21
-11 -5 -54 -14 -95 -20 -41 -6 -106 -20 -145 -31 -109 -32 -317 -99 -350 -114
-16 -8 -70 -30 -120 -50 -90 -36 -455 -216 -530 -260 -22 -13 -47 -28 -55 -32
-17 -9 -136 -78 -165 -96 -87 -54 -122 -74 -135 -81 -27 -13 -58 -32 -75 -46
-19 -16 -50 -35 -80 -49 -12 -5 -27 -16 -34 -25 -7 -9 -17 -16 -21 -16 -4 0
-77 -46 -161 -103 l-154 -103 -2 276 c-2 248 -14 447 -53 885 -63 717 -177
1389 -274 1623 -13 31 -36 95 -51 142 -15 47 -31 90 -35 95 -4 6 -13 28 -20
50 -7 22 -23 63 -36 92 -13 28 -24 54 -24 57 0 3 -11 30 -25 60 -14 30 -25 57
-25 59 0 6 -72 161 -117 252 -33 67 -49 96 -93 168 -11 17 -24 41 -29 52 -5
12 -16 27 -25 34 -9 7 -16 18 -16 23 0 21 -159 219 -244 304 -64 64 -189 164
-204 164 -5 0 -15 6 -21 14 -18 22 -179 98 -276 131 -60 20 -305 55 -377 54
-35 -1 -106 -6 -158 -10z m415 -377 c107 -36 203 -84 266 -131 116 -89 256
-246 324 -363 5 -10 28 -48 51 -85 46 -76 156 -301 187 -383 3 -8 22 -53 42
-100 20 -47 48 -116 61 -155 14 -38 31 -83 39 -100 15 -36 106 -307 128 -385
9 -30 19 -77 22 -105 4 -27 10 -59 15 -70 12 -25 99 -586 110 -710 8 -82 15
-149 40 -390 15 -147 40 -453 50 -607 17 -278 38 -479 71 -688 12 -76 27 -58
-156 -190 -122 -88 -449 -332 -709 -529 l-150 -113 -795 66 c-766 63 -1026 84
-1361 106 -85 6 -218 15 -295 20 -77 5 -178 12 -225 15 -786 52 -1669 42
-2225 -25 -85 -10 -197 -23 -360 -40 -236 -26 -610 -78 -1220 -171 -71 -11
-133 -19 -136 -19 -4 0 -3 17 3 38 11 44 35 149 48 212 5 25 14 61 19 80 10
37 31 122 55 230 24 103 76 321 87 365 23 88 58 231 69 280 5 22 16 67 25 100
9 33 23 87 31 120 8 33 21 85 28 115 15 61 71 273 112 425 15 55 29 112 32
128 2 15 8 30 13 33 5 3 9 15 9 28 0 13 11 61 25 107 14 46 30 100 35 119 21
82 44 161 71 247 16 50 29 98 29 105 0 8 11 47 24 88 13 41 43 136 66 210 65
213 179 562 195 600 8 19 38 98 66 175 28 77 62 164 75 193 13 29 24 55 24 58
0 13 134 293 163 339 113 184 240 291 408 343 120 37 222 46 374 33 76 -6 143
-15 149 -20 6 -5 37 -12 69 -16 31 -4 60 -11 63 -16 3 -5 15 -9 27 -9 24 0
382 -118 522 -172 50 -20 131 -50 180 -68 50 -17 116 -42 148 -55 l59 -22 -29
-20 c-15 -11 -35 -23 -43 -26 -19 -8 -42 -23 -103 -64 -26 -18 -50 -33 -53
-33 -4 0 -29 -16 -55 -35 -27 -19 -52 -35 -55 -35 -3 0 -27 -16 -52 -35 -26
-19 -92 -68 -147 -109 -55 -41 -174 -136 -265 -212 -264 -219 -350 -314 -284
-314 16 0 143 41 199 65 17 7 48 19 70 28 44 17 264 112 360 155 137 61 551
275 606 313 15 10 37 23 50 29 13 5 31 14 39 20 29 19 175 102 195 111 11 5
34 17 50 27 17 10 55 32 85 49 30 16 73 40 95 53 22 13 76 42 120 65 44 23
110 58 146 78 99 54 662 337 670 337 4 0 51 21 105 46 55 25 114 52 132 60 17
8 47 21 65 29 17 8 59 24 92 35 33 12 71 27 85 34 43 23 342 116 420 131 49 9
120 13 205 11 113 -3 142 -8 220 -34z m4630 -3481 c228 -36 397 -72 473 -102
13 -5 31 -9 40 -9 32 0 558 -178 586 -198 6 -4 29 -14 51 -21 22 -7 58 -21 80
-31 22 -10 74 -32 115 -49 41 -18 84 -36 95 -41 50 -22 513 -253 542 -270 18
-11 58 -33 90 -50 32 -17 72 -40 88 -51 17 -10 39 -23 50 -29 11 -5 38 -21 60
-35 22 -14 47 -28 55 -32 8 -4 36 -22 62 -40 26 -18 50 -33 53 -33 3 0 28 -16
55 -35 27 -19 54 -35 58 -35 5 0 17 -9 27 -20 10 -11 22 -20 27 -20 5 0 28
-15 51 -32 23 -18 49 -37 59 -43 26 -16 246 -185 312 -239 168 -140 322 -309
368 -406 21 -44 15 -130 -12 -180 -49 -91 -162 -209 -295 -311 -71 -54 -223
-159 -230 -159 -3 0 -27 -15 -53 -32 -26 -18 -65 -43 -87 -55 -22 -12 -69 -37
-105 -57 -203 -112 -629 -309 -850 -393 -30 -12 -95 -37 -145 -56 -49 -19
-119 -44 -155 -57 -36 -12 -78 -28 -95 -35 -39 -17 -401 -132 -440 -140 -16
-4 -39 -10 -50 -15 -27 -11 -191 -54 -285 -75 -41 -10 -88 -21 -105 -26 -47
-13 -334 -58 -442 -69 -492 -50 -731 -50 -1953 0 -659 26 -1502 43 -1835 35
-401 -9 -1228 -34 -1485 -45 -241 -10 -1347 -53 -1825 -70 -920 -32 -2099 -37
-2730 -10 -229 10 -728 46 -968 70 -112 12 -664 97 -677 105 -5 3 -32 10 -62
15 -29 6 -84 19 -123 31 -173 50 -211 62 -220 69 -5 4 -35 15 -65 25 -30 10
-80 30 -110 46 -30 15 -62 30 -70 33 -56 22 -232 135 -334 213 -293 224 -549
517 -777 888 -68 112 -207 377 -248 475 -119 283 -187 472 -220 605 -5 22 -15
58 -21 80 -31 109 -82 415 -69 415 4 0 11 -5 14 -11 4 -5 17 -15 28 -20 29
-12 59 -32 157 -104 46 -33 90 -64 99 -70 9 -5 45 -33 81 -60 36 -28 94 -72
130 -97 36 -26 101 -75 145 -108 44 -34 102 -78 129 -98 26 -20 65 -50 86 -67
21 -16 61 -48 90 -70 29 -22 89 -69 134 -105 44 -36 106 -85 136 -108 30 -22
83 -63 116 -89 34 -26 119 -93 190 -148 71 -54 147 -114 169 -132 37 -30 232
-183 355 -278 91 -70 222 -176 316 -254 50 -42 127 -103 169 -136 116 -90 332
-259 399 -313 63 -50 226 -176 316 -244 30 -23 57 -45 60 -49 12 -18 224 -169
236 -169 8 0 17 7 21 16 4 11 -25 47 -96 118 -66 66 -98 105 -89 108 24 9 492
77 673 97 50 6 133 15 185 21 52 6 131 15 175 20 147 17 189 20 440 35 451 26
1045 15 2265 -45 107 -5 262 -13 343 -16 164 -8 162 -2 17 -64 -41 -18 -84
-36 -95 -40 -151 -60 -226 -88 -351 -129 -158 -51 -278 -88 -331 -103 -18 -4
-48 -12 -65 -17 -127 -36 -330 -84 -478 -114 -150 -31 -244 -46 -575 -95 -41
-6 -50 -11 -50 -27 0 -19 8 -20 105 -23 369 -12 1066 78 1470 188 36 10 110
30 165 45 187 51 496 159 690 242 74 31 348 167 395 195 19 12 52 31 72 42 58
32 234 143 326 205 46 31 94 63 107 71 65 41 303 209 549 388 188 137 213 154
254 174 24 11 50 31 58 44 17 25 14 22 359 279 362 270 450 335 563 416 186
134 564 394 602 415 11 6 28 18 38 27 10 10 22 17 25 17 4 0 29 15 55 33 70
47 85 56 107 66 12 5 27 16 34 25 7 9 17 16 21 16 4 0 40 19 79 43 40 23 84
49 99 58 15 9 68 37 117 64 50 26 101 56 115 65 14 10 52 30 85 45 33 15 110
52 171 81 61 30 115 54 120 54 5 0 32 11 59 25 28 13 57 25 66 25 8 0 19 4 25
9 12 13 241 88 324 108 238 55 317 63 560 58 143 -3 230 -10 385 -34z m-7640
-1701 c287 -11 911 -43 1135 -60 74 -5 239 -17 365 -26 251 -17 1388 -110
1472 -119 l52 -6 -107 -81 c-59 -45 -118 -90 -132 -100 -39 -31 -215 -158
-288 -210 -37 -26 -104 -75 -150 -108 -45 -33 -85 -60 -88 -60 -3 0 -23 -12
-43 -27 -20 -16 -45 -33 -56 -40 -11 -7 -38 -23 -60 -36 l-40 -25 -315 19
c-436 25 -1020 53 -1470 69 -821 31 -1425 29 -1790 -5 -457 -43 -603 -60 -990
-116 -113 -17 -254 -37 -315 -46 -60 -8 -123 -22 -139 -29 -16 -8 -34 -14 -39
-14 -18 0 -387 352 -387 370 0 6 9 39 19 73 11 34 29 107 42 162 l22 101 351
56 c366 60 614 97 826 123 69 9 157 20 197 26 88 12 203 25 388 44 730 72
1016 84 1540 65z m5050 -2192 c301 -150 456 -222 590 -275 50 -19 104 -41 120
-48 43 -18 80 -31 165 -55 41 -12 84 -26 95 -31 11 -4 58 -14 105 -20 47 -6
90 -15 96 -20 6 -5 66 -14 134 -19 68 -6 127 -13 131 -15 7 -5 90 -13 389 -40
353 -32 500 -45 590 -54 129 -13 301 -40 321 -50 9 -5 41 -12 73 -16 31 -4 59
-11 62 -16 3 -5 17 -9 31 -9 35 0 173 -68 173 -86 0 -45 -66 -195 -124 -279
-22 -33 -45 -68 -51 -77 -63 -107 -328 -398 -524 -576 -157 -142 -435 -351
-556 -418 -94 -52 -219 -114 -260 -128 -27 -10 -59 -22 -70 -26 -94 -35 -355
-78 -555 -90 -199 -13 -396 -12 -872 2 -328 9 -478 9 -780 -2 -205 -7 -409
-16 -452 -19 l-80 -6 -33 -85 c-18 -47 -39 -98 -47 -115 -7 -16 -18 -41 -23
-55 -6 -14 -26 -61 -46 -105 -20 -44 -51 -118 -71 -165 -49 -120 -161 -335
-207 -402 -11 -14 -19 -29 -19 -33 0 -4 -13 -24 -30 -45 -16 -21 -30 -41 -30
-45 0 -16 -144 -176 -187 -208 -71 -51 -216 -108 -313 -123 -25 -4 -53 -11
-62 -16 -17 -8 -82 -16 -318 -38 -58 -5 -321 -14 -585 -20 -264 -5 -525 -15
-580 -20 -169 -18 -329 -41 -350 -50 -11 -5 -74 -18 -140 -29 -66 -10 -181
-34 -255 -51 -74 -18 -160 -38 -190 -45 -135 -31 -447 -136 -625 -210 -108
-45 -196 -87 -250 -121 -22 -13 -49 -29 -60 -34 -23 -11 -17 -8 -190 -120 -71
-47 -137 -88 -145 -91 -9 -4 -22 -14 -29 -23 -7 -9 -17 -16 -22 -16 -5 0 -31
-15 -57 -32 -51 -35 -53 -36 -152 -96 -169 -103 -376 -187 -520 -213 -98 -17
-345 -17 -490 -1 -197 22 -465 74 -535 102 -11 5 -36 11 -56 15 -44 7 -338
100 -394 125 -22 9 -74 32 -115 50 -148 65 -258 153 -332 265 -23 33 -89 155
-148 270 -59 116 -121 233 -139 261 -17 28 -31 54 -31 57 0 3 -13 25 -29 49
-16 24 -40 63 -53 88 -13 25 -31 56 -40 70 -51 78 -218 411 -218 434 0 8 -4
17 -9 21 -19 11 -93 259 -112 372 -46 284 -7 674 87 881 14 32 32 65 41 74 53
60 305 4 440 -98 17 -13 36 -24 40 -24 17 0 99 -93 153 -173 44 -66 60 -82 80
-82 62 0 106 184 75 319 -9 41 -23 80 -31 86 -7 7 -14 18 -14 25 0 56 -234
234 -308 235 -49 1 -39 18 30 54 40 21 80 45 89 52 8 8 19 14 23 14 23 0 162
103 226 169 98 99 126 155 147 291 16 104 15 110 -7 234 l-22 128 49 50 c84
87 246 217 302 244 124 59 305 11 465 -124 24 -20 73 -58 108 -84 179 -129
203 -116 118 66 -77 164 -202 325 -304 390 -28 18 -83 44 -121 59 -60 23 -86
27 -176 27 -166 0 -265 -37 -399 -148 -30 -25 -62 -51 -70 -58 -14 -11 -15 0
-12 99 1 62 5 126 7 143 l5 30 73 -8 c39 -5 128 -15 197 -23 138 -17 541 -47
895 -67 313 -18 2149 -18 2680 0 374 13 1066 39 2165 82 832 33 1083 38 1690
36 l575 -3 190 -95z m-8640 -110 c-10 -33 -21 -80 -44 -191 -23 -108 -26 -223
-11 -397 10 -115 0 -199 -31 -261 -20 -40 -92 -108 -142 -133 -17 -10 -54 -30
-82 -47 -27 -16 -104 -57 -170 -90 -141 -72 -138 -70 -239 -133 l-78 -49 -62
20 c-319 109 -316 108 -452 209 -161 120 -418 350 -484 434 l-31 39 229 -6
c221 -6 341 2 427 28 120 36 190 61 254 90 90 41 422 208 471 237 19 12 60 34
90 50 110 58 154 83 170 95 8 7 27 19 41 26 15 7 51 33 80 56 62 50 74 54 64
23z m11335 -2432 c87 -15 142 -31 195 -60 17 -9 35 -16 41 -16 6 0 17 -7 24
-15 7 -8 18 -15 26 -15 7 0 42 -20 76 -45 35 -25 83 -60 108 -77 159 -113 435
-386 541 -537 21 -31 57 -81 79 -111 23 -30 45 -64 51 -75 5 -11 19 -36 30
-55 12 -19 27 -51 35 -72 15 -44 8 -53 -76 -88 -76 -31 -258 -90 -281 -90 -11
0 -27 -4 -37 -10 -18 -10 -44 -15 -297 -60 -215 -39 -209 -39 -235 13 -11 23
-25 49 -30 57 -5 8 -11 22 -14 30 -4 8 -17 33 -31 55 -14 22 -30 49 -36 60
-18 36 -34 62 -49 80 -8 9 -19 25 -25 35 -54 92 -184 249 -276 334 -35 32 -55
56 -44 52 35 -13 506 -96 559 -98 45 -3 51 -1 51 17 0 28 -123 89 -465 232
-58 24 -114 47 -125 52 -11 5 -56 23 -100 39 -44 17 -111 43 -150 58 -87 34
-310 112 -475 166 -115 39 -122 42 -90 48 20 3 40 9 46 12 13 9 515 86 584 91
140 9 312 6 390 -7z m-3323 -150 c2 -2 -42 -129 -106 -306 -35 -96 -162 -391
-181 -420 -5 -8 -28 -51 -51 -95 -46 -92 -67 -125 -164 -266 -38 -55 -76 -111
-84 -122 -8 -12 -25 -33 -37 -47 -12 -14 -30 -39 -41 -56 -25 -41 -75 -111
-153 -209 -119 -151 -507 -672 -571 -767 -43 -62 -46 -76 -24 -84 25 -10 155
107 480 431 176 175 218 220 371 390 212 236 376 439 428 531 10 16 30 52 46
79 110 189 242 500 342 801 l43 131 74 7 c94 8 251 8 414 -1 l129 -6 23 -51
c51 -114 75 -174 75 -188 0 -7 8 -30 18 -49 21 -42 53 -130 77 -214 9 -33 23
-80 31 -105 7 -25 27 -121 45 -215 58 -317 37 -567 -69 -795 -107 -230 -520
-685 -1061 -1166 -25 -23 -91 -81 -146 -131 -55 -49 -138 -121 -185 -160 -47
-39 -118 -98 -158 -132 -71 -60 -447 -360 -567 -452 -216 -166 -450 -336 -695
-507 -102 -71 -372 -252 -376 -252 -3 0 -27 -16 -54 -35 -27 -19 -52 -35 -56
-35 -3 0 -26 -15 -52 -32 -26 -18 -56 -38 -67 -44 -18 -10 -97 -55 -163 -95
-103 -61 -575 -302 -672 -343 -25 -11 -67 -29 -95 -42 -330 -148 -722 -274
-1011 -324 -358 -62 -779 -49 -1119 35 -95 23 -298 86 -340 105 -73 32 -202
93 -215 100 -8 5 -42 23 -75 39 -155 78 -454 267 -650 411 -328 241 -698 540
-906 734 -36 33 -111 103 -166 154 -344 315 -757 766 -864 942 -51 83 -61 192
-28 295 40 124 179 302 329 419 l57 45 29 -30 c45 -48 166 -128 259 -172 32
-16 72 -56 126 -127 257 -341 700 -795 923 -945 122 -83 219 -137 476 -266
215 -108 337 -161 585 -257 44 -17 121 -47 171 -66 50 -20 95 -36 99 -36 4 0
55 -18 114 -39 165 -61 300 -103 311 -96 33 20 -6 51 -170 134 -47 24 -89 47
-95 51 -5 4 -91 49 -190 100 -99 51 -184 96 -190 100 -5 4 -35 21 -65 38 -30
16 -133 73 -229 126 -95 53 -175 96 -178 96 -2 0 -41 23 -86 52 -45 28 -120
75 -167 105 -103 64 -217 145 -279 196 -92 77 -316 306 -439 447 -69 80 -134
155 -145 167 l-19 21 64 -17 c35 -9 68 -19 73 -22 6 -4 35 -10 65 -14 30 -4
60 -11 65 -15 6 -4 50 -13 99 -20 91 -13 119 -27 256 -129 19 -14 43 -30 52
-36 16 -9 40 -26 141 -94 21 -14 45 -31 55 -36 9 -6 51 -32 92 -60 95 -63 99
-65 146 -93 22 -12 53 -31 69 -42 17 -11 46 -29 65 -40 66 -39 135 -79 150
-87 26 -13 224 -124 240 -133 33 -20 172 -86 290 -137 125 -54 247 -91 374
-114 144 -25 446 9 582 66 48 21 208 99 249 123 57 33 230 156 324 232 51 41
105 84 120 95 212 159 573 526 771 785 19 25 60 74 91 110 83 97 396 510 479
633 l45 67 95 0 c254 0 699 41 767 70 12 5 45 12 73 16 28 4 53 11 56 15 3 5
13 9 23 9 10 0 33 7 52 16 19 9 54 26 79 37 146 69 277 194 377 362 22 38 113
222 113 229 0 5 24 49 54 99 53 93 155 305 194 407 11 30 35 92 52 137 l31 82
62 4 c55 3 389 -3 394 -7z m1633 -257 c19 -6 54 -14 76 -19 23 -5 72 -19 110
-30 38 -12 114 -35 169 -52 55 -16 109 -34 120 -38 11 -4 65 -22 120 -40 181
-58 400 -150 527 -222 123 -70 289 -242 383 -396 6 -9 23 -37 39 -62 104 -159
286 -596 286 -684 0 -12 4 -26 9 -31 12 -13 41 -198 41 -259 0 -26 -5 -56 -10
-67 -17 -31 -87 -55 -214 -74 -175 -26 -406 -17 -746 31 -58 8 -118 19 -135
24 -16 5 -50 14 -74 20 -71 19 -226 96 -337 168 -134 87 -220 150 -364 267
-52 42 -105 81 -118 86 -15 6 -20 13 -16 21 5 7 14 42 22 78 7 36 17 83 22
105 13 55 12 349 0 421 -28 158 -94 378 -136 453 -13 24 -24 49 -24 55 0 6 -9
22 -20 36 -45 57 -13 36 98 -66 64 -60 178 -165 253 -234 121 -112 395 -335
470 -384 32 -20 59 -16 59 10 0 19 -69 124 -171 259 -37 50 -85 113 -106 140
-20 28 -57 73 -80 100 -54 63 -291 349 -318 383 l-19 25 24 -7 c14 -4 41 -12
60 -17z m-4140 -1235 c0 -3 -35 -42 -77 -87 -43 -46 -148 -159 -233 -252 -198
-218 -746 -767 -872 -874 -54 -45 -146 -117 -205 -158 -60 -42 -152 -107 -206
-145 -123 -87 -226 -149 -338 -204 -180 -89 -295 -118 -469 -117 -131 0 -139
2 -255 41 -106 35 -273 105 -315 132 -8 5 -46 25 -85 45 -38 19 -97 51 -130
69 -33 19 -78 44 -100 55 -22 12 -47 26 -55 31 -36 23 -182 110 -185 110 -2 0
-32 19 -67 41 -35 23 -90 59 -123 80 -33 21 -73 48 -90 59 l-30 20 54 0 c68 0
331 37 353 50 10 6 23 10 30 10 34 0 392 166 437 203 15 12 48 33 71 43 8 4
36 22 63 41 26 18 51 33 55 33 5 0 17 9 27 20 10 11 22 20 26 20 5 0 45 25 89
55 44 30 83 55 85 55 3 0 27 15 53 33 189 128 384 221 632 302 63 20 123 41
132 46 10 5 25 9 33 9 8 0 23 4 33 9 9 5 37 15 62 21 25 7 56 16 70 21 14 5
48 14 75 20 141 30 161 34 170 40 6 4 48 12 95 18 47 7 94 16 105 21 19 8 81
19 315 56 58 9 157 19 220 24 142 9 550 12 550 4z"/>
<path d="M11274 16416 c-10 -26 4 -48 28 -44 17 2 23 10 23 28 0 18 -6 26 -23
28 -13 2 -25 -3 -28 -12z"/>
<path d="M10485 10251 c-55 -25 -357 -126 -425 -142 -81 -20 -325 -17 -420 5
-72 16 -183 37 -500 91 -168 29 -483 44 -565 27 -111 -23 -212 -58 -285 -102
-8 -5 -22 -11 -30 -15 -82 -33 -369 -261 -487 -386 -75 -80 -163 -195 -161
-209 6 -29 54 -21 151 25 54 25 101 45 105 45 4 0 52 22 107 50 173 85 374
170 500 209 39 12 86 27 105 33 19 6 94 11 165 11 107 -1 194 -11 490 -58 346
-54 366 -56 510 -52 113 3 170 10 230 26 88 25 220 91 305 154 145 107 289
259 276 292 -7 19 -21 18 -71 -4z"/>
<path d="M6125 8723 c-22 -5 -62 -21 -85 -34 -8 -5 -24 -13 -35 -18 -78 -35
-223 -261 -284 -440 -48 -142 5 -124 299 99 58 43 128 89 155 100 l51 21 46
-21 c26 -11 90 -60 143 -108 209 -189 250 -220 280 -208 12 4 15 14 9 43 -14
85 -57 213 -96 290 -74 146 -159 232 -268 270 -33 12 -171 16 -215 6z"/>
<path d="M6625 7403 c-27 -14 -72 -37 -100 -51 -27 -14 -84 -47 -127 -73 -69
-44 -136 -78 -269 -137 -129 -58 -737 -178 -954 -189 -122 -6 -252 7 -372 37
-90 22 -118 33 -252 97 -51 24 -101 43 -110 41 -19 -4 -25 -44 -16 -105 5 -32
18 -56 55 -96 43 -47 59 -57 142 -85 51 -18 127 -38 168 -45 l75 -13 -5 -34
c-3 -19 -5 -84 -5 -145 1 -105 2 -113 34 -178 39 -78 148 -188 222 -224 118
-58 519 -92 704 -59 89 16 289 80 377 120 31 14 60 26 63 26 20 0 190 113 266
177 274 230 369 417 369 729 0 119 -18 184 -60 214 -43 30 -140 27 -205 -7z
m73 -286 c-11 -73 -13 -77 -53 -106 -56 -40 -247 -135 -359 -178 -50 -19 -143
-47 -207 -63 -200 -49 -627 -110 -764 -110 -81 0 -316 27 -327 38 -4 4 -11 22
-14 41 l-7 33 79 -7 c213 -19 844 85 1134 187 118 41 313 144 369 194 25 22
64 50 86 62 38 19 41 20 58 3 16 -15 16 -24 5 -94z m-64 -229 c-105 -179 -337
-373 -529 -443 -27 -10 -55 -22 -61 -26 -14 -11 -169 -63 -229 -78 -93 -21
-188 -28 -289 -19 -238 21 -342 53 -410 128 -35 39 -102 158 -93 166 2 3 15 0
28 -5 13 -5 67 -14 119 -21 118 -15 271 -8 517 25 391 53 593 109 838 229 128
63 118 59 109 44z"/>
</g>
</svg>
